<?xml version="1.0" standalone="no"?>
<!DOCTYPE svg PUBLIC "-//W3C//DTD SVG 20010904//EN"
 "http://www.w3.org/TR/2001/REC-SVG-20010904/DTD/svg10.dtd">
<svg version="1.0" xmlns="http://www.w3.org/2000/svg"
 width="893.000000pt" height="960.000000pt" viewBox="0 0 893.000000 960.000000"
 preserveAspectRatio="xMidYMid meet">

<g transform="translate(0.000000,960.000000) scale(0.100000,-0.100000)"
fill="#6FB3D9" stroke="none">
<path d="M3682 9410 c-326 -15 -641 -50 -802 -90 -88 -23 -384 -122 -520 -175
-356 -139 -612 -319 -902 -635 -304 -331 -551 -774 -638 -1145 -67 -289 -67
-638 0 -950 58 -266 173 -534 319 -740 77 -110 230 -261 328 -325 l82 -53 -17
-30 c-30 -52 -126 -130 -262 -212 -146 -88 -251 -175 -379 -311 -295 -315
-509 -667 -635 -1046 -77 -231 -90 -311 -91 -558 0 -184 3 -231 23 -327 76
-378 272 -775 567 -1149 93 -118 336 -363 455 -458 392 -313 886 -545 1603
-752 775 -224 1200 -294 1782 -294 358 0 484 15 849 101 1235 290 1968 621
2515 1135 233 219 414 467 560 769 236 484 300 893 210 1338 -141 699 -740
1403 -1604 1888 -124 69 -395 199 -415 199 -26 0 9 168 114 546 99 356 115
428 128 562 45 452 -191 1088 -590 1592 -91 115 -316 341 -432 434 -195 156
-466 319 -693 416 -494 211 -975 295 -1555 270z m1607 -876 c105 -35 168 -73
233 -142 185 -194 182 -461 -9 -671 -53 -59 -188 -156 -248 -179 -30 -12 -285
-55 -290 -50 -4 4 -165 1003 -165 1021 0 10 33 20 123 35 150 25 250 22 356
-14z m-486 -556 c43 -266 77 -488 77 -494 0 -6 -55 -20 -127 -32 l-128 -21
-187 192 c-103 106 -188 188 -188 184 0 -5 14 -93 30 -195 20 -123 27 -188 20
-192 -16 -10 -242 -42 -248 -35 -11 11 -152 909 -144 916 8 7 199 39 234 39
18 0 66 -49 207 -211 101 -115 185 -208 188 -205 4 4 -62 440 -73 477 -4 13
15 20 113 36 65 12 125 21 133 22 13 1 29 -83 93 -481z m-991 -93 c103 -269
187 -489 185 -490 -4 -3 -93 -37 -168 -65 l-77 -29 -28 75 c-18 47 -34 74 -44
74 -42 0 -236 -34 -242 -43 -3 -6 -9 -49 -13 -97 -4 -48 -10 -92 -14 -98 -4
-7 -43 -6 -131 4 -68 8 -125 16 -127 18 -4 3 109 1078 113 1084 3 5 337 60
348 58 5 -1 94 -222 198 -491z m-819 245 c60 -203 80 -316 84 -485 4 -125 1
-175 -11 -229 -34 -143 -120 -252 -234 -297 -85 -34 -228 -34 -297 1 -151 74
-260 298 -300 619 -19 157 -29 337 -19 344 5 3 66 3 137 0 l127 -6 0 -86 c0
-47 5 -138 11 -201 25 -274 89 -430 177 -432 57 -2 90 20 119 81 26 52 28 64
27 171 -1 121 -29 283 -78 450 -14 46 -23 87 -20 90 10 10 219 79 234 77 9 -2
25 -36 43 -97z m-1208 -104 c136 -36 268 -147 330 -278 40 -83 65 -186 65
-269 0 -74 -33 -200 -70 -265 -16 -29 -26 -55 -21 -58 4 -3 21 -24 37 -47 l29
-42 -90 -84 -90 -83 -20 26 c-11 15 -29 38 -40 51 l-20 25 -62 -21 c-196 -66
-418 18 -547 207 -155 227 -131 530 58 717 61 62 139 107 213 124 58 14 172
12 228 -3z"/>
</g>
</svg>
