<?xml version="1.0" encoding="UTF-8"?>
<svg version="1.1" xmlns="http://www.w3.org/2000/svg" width="893" height="960">
<path d="M0 0 C1.72944855 -0.00101212 1.72944855 -0.00101212 3.49383545 -0.00204468 C20.04100411 0.01332545 36.16584762 0.37880643 52.5 3.25 C54.03624023 3.49943359 54.03624023 3.49943359 55.60351562 3.75390625 C120.71513717 14.40208179 191.60258938 45.43854163 234.859375 97.3046875 C235.99849031 98.65535279 237.1793526 99.97146123 238.390625 101.2578125 C277.99200095 143.35260842 308.37768772 205.75040924 307.64526367 264.31469727 C307.16767705 277.25288 304.75473556 289.57574819 301.5 302.0625 C301.10392694 303.61671804 300.70843283 305.17108372 300.31347656 306.72558594 C297.26897583 318.62627792 293.95673527 330.44928961 290.60748291 342.26712036 C286.96294432 355.15345555 283.92508261 368.07174621 281.5 381.25 C282.30405273 381.61649658 283.10810547 381.98299316 283.93652344 382.3605957 C316.07400977 397.05627508 346.39172056 413.63430027 374.5 435.25 C375.15709961 435.75015625 375.81419922 436.2503125 376.49121094 436.765625 C383.55070032 442.14428358 390.31067786 447.71011762 396.8046875 453.765625 C398.9271854 455.72201437 401.07601505 457.6162845 403.26171875 459.5 C407.83431789 463.48840611 412.15039328 467.70832426 416.4375 472 C417.23019287 472.79349854 418.02288574 473.58699707 418.83959961 474.40454102 C424.4699327 480.09400043 429.59523076 485.92254922 434.5 492.25 C435.95696892 493.98031646 437.41535327 495.70944187 438.875 497.4375 C474.00373714 540.50838641 492.97271754 594.36333826 487.55249023 649.98046875 C482.39855146 696.17040914 460.86878456 739.96191332 432.5 776.25 C431.695625 777.28253906 430.89125 778.31507813 430.0625 779.37890625 C423.98801742 786.84545775 417.27928818 793.67687347 410.5 800.5 C409.58621582 801.42312988 408.67243164 802.34625977 407.73095703 803.29736328 C401.62783268 809.37211623 395.2559025 814.91482604 388.5 820.25 C387.90815918 820.72679199 387.31631836 821.20358398 386.70654297 821.69482422 C318.94361811 876.19351697 229.61415032 901.15906333 108.5 926.25 C107.69900879 926.3339502 106.89801758 926.41790039 106.07275391 926.50439453 C94.36808721 927.59107593 82.62003981 927.49382027 70.875 927.5 C69.72138977 927.50067474 68.56777954 927.50134949 67.37921143 927.50204468 C47.59274549 927.48373687 28.13739855 926.63973008 8.5 924.25 C7.11540839 924.0873065 5.73080541 923.92470977 4.34619141 923.76220703 C-18.69387421 921.0085466 -41.03697055 915.97975425 -63.5 910.25 C-65.13214034 909.83634246 -66.76430186 909.42276846 -68.39648438 909.00927734 C-111.58686049 898.03455902 -154.84408481 885.71980064 -195.5 867.25 C-196.41974609 866.83685547 -197.33949219 866.42371094 -198.28710938 865.99804688 C-232.29815119 850.6358655 -262.58635185 829.92670632 -289.875 804.5625 C-290.52919922 803.95688232 -291.18339844 803.35126465 -291.85742188 802.72729492 C-296.37934594 798.47560306 -300.4695198 793.96543372 -304.5 789.25 C-305.44850848 788.17790375 -306.3989147 787.1074823 -307.3515625 786.0390625 C-349.33810975 738.39342633 -377.41791017 678.49078502 -374.5 614.25 C-373.98312961 607.48874583 -372.91316677 600.87799072 -371.5 594.25 C-371.25854248 593.11038818 -371.25854248 593.11038818 -371.01220703 591.94775391 C-362.65025009 554.05788755 -343.79331258 518.25550161 -319.5 488.25 C-318.66745467 487.20483637 -317.83538595 486.15929283 -317.00390625 485.11328125 C-314.86978136 482.46134442 -312.70152777 479.84614123 -310.5 477.25 C-309.87867188 476.51652344 -309.25734375 475.78304688 -308.6171875 475.02734375 C-297.02603318 461.77706342 -284.7464103 448.26699272 -269.5 439.25 C-268.72446777 438.79077148 -267.94893555 438.33154297 -267.14990234 437.85839844 C-265.40913421 436.82944772 -263.66832921 435.80055937 -261.92749023 434.77172852 C-261.04391846 434.24893311 -260.16034668 433.7261377 -259.25 433.1875 C-258.38125244 432.67437256 -257.51250488 432.16124512 -256.61743164 431.63256836 C-248.17948908 426.58408104 -241.84983907 421.57979329 -236.5 413.25 C-237.5415625 412.569375 -238.583125 411.88875 -239.65625 411.1875 C-277.48572693 385.85661172 -300.0008003 344.33282989 -309.11669922 300.26904297 C-312.15059781 284.61907956 -313.73749839 269.43276674 -313.75 253.5 C-313.75067474 252.72510223 -313.75134949 251.95020447 -313.75204468 251.15182495 C-313.734354 238.31814819 -313.05798147 225.86115075 -310.5 213.25 C-310.33371094 212.42612793 -310.16742188 211.60225586 -309.99609375 210.75341797 C-300.73667989 166.72833449 -276.84903289 125.40663467 -246.5390625 92.47265625 C-244.68749705 90.45437897 -242.90167 88.39650865 -241.125 86.3125 C-234.11810054 78.3046149 -226.56112671 71.04719539 -218.234375 64.42578125 C-216.43169855 62.99136585 -214.64956347 61.53069366 -212.890625 60.04296875 C-187.83442181 38.87863144 -158.08605515 27.48732395 -127.4375 16.875 C-126.34816162 16.49532074 -126.34816162 16.49532074 -125.23681641 16.10797119 C-110.68784748 11.05679534 -96.23837759 7.17982868 -80.9375 5.125 C-79.7407666 4.95959717 -78.5440332 4.79419434 -77.31103516 4.6237793 C-66.07220973 3.11329666 -54.81430167 1.99892455 -43.5 1.25 C-42.25057617 1.16314941 -41.00115234 1.07629883 -39.71386719 0.98681641 C-26.48272691 0.12315261 -13.25596853 0.00701273 0 0 Z " fill="#7DD3C0" transform="translate(389.5,17.75)"/>
<path d="M0 0 C1.93285654 0.01464301 3.86571813 0.02863374 5.79858398 0.04199219 C10.43083481 0.07980229 15.06239667 0.13964308 19.69421387 0.21289062 C21.73130621 0.24481043 23.76848138 0.27136371 25.80566406 0.296875 C55.56700264 0.74121225 85.77563831 4.06065124 115.0625 9.25 C116.25294922 9.45318848 117.44339844 9.65637695 118.66992188 9.86572266 C188.14207996 21.77345687 260.72684431 44.41010583 314.49194336 91.86791992 C315.62188138 92.86225836 316.7590091 93.84844831 317.90063477 94.8293457 C330.89252541 106.03543145 343.10711823 118.24389021 353.0625 132.25 C353.47902832 132.83281738 353.89555664 133.41563477 354.32470703 134.01611328 C369.82926916 155.94373912 381.36286588 179.93697442 387.0625 206.25 C387.30589111 207.28350586 387.30589111 207.28350586 387.55419922 208.33789062 C398.15977941 254.35012912 385.72084316 305.36484722 362.0625 345.25 C353.95831255 358.2081542 344.50952794 370.10650353 334.0625 381.25 C333.60278809 381.74371094 333.14307617 382.23742187 332.66943359 382.74609375 C314.17032056 402.45554397 291.01781628 416.89639872 267.50683594 429.89648438 C265.33281966 431.1003144 263.16979676 432.32164254 261.0078125 433.546875 C241.12211073 444.63437118 219.81230258 452.9069782 198.3125 460.25 C197.53210358 460.51735962 196.75170715 460.78471924 195.94766235 461.06018066 C184.75919175 464.87305348 173.47836077 468.19118586 162.0625 471.25 C161.02883301 471.53214355 159.99516602 471.81428711 158.93017578 472.10498047 C146.49731781 475.46974422 133.97982771 478.14293109 121.3125 480.4375 C120.64950897 480.55801727 119.98651794 480.67853455 119.30343628 480.80270386 C100.95732318 484.11490012 82.57230206 486.78159983 64 488.4375 C63.03237732 488.52404846 62.06475464 488.61059692 61.06781006 488.69976807 C36.74742357 490.81139332 12.45234039 490.84942954 -11.9375 490.25 C-12.73375793 490.23066406 -13.53001587 490.21132813 -14.35040283 490.19140625 C-24.24898947 489.93156531 -34.08845614 489.27630801 -43.9375 488.25 C-45.10336639 488.12912018 -45.10336639 488.12912018 -46.29278564 488.00579834 C-68.90152686 485.61706144 -91.09151728 481.90110925 -113.25 476.8125 C-114.22477295 476.58974396 -115.1995459 476.36698792 -116.20385742 476.13748169 C-135.49260534 471.68665666 -154.56045913 466.25908377 -173.0625 459.1875 C-174.26060303 458.73052734 -175.45870605 458.27355469 -176.69311523 457.80273438 C-202.99198375 447.61167305 -228.93855378 434.605679 -251.9375 418.25 C-253.080979 417.43909912 -253.080979 417.43909912 -254.24755859 416.61181641 C-263.01800547 410.35669387 -271.60635139 404.06790813 -279.41796875 396.62890625 C-281.45319959 394.70726969 -283.51920192 392.87791328 -285.640625 391.0546875 C-290.47044309 386.84872798 -294.98381323 382.35031256 -299.5 377.8125 C-300.31146484 377.00490234 -301.12292969 376.19730469 -301.95898438 375.36523438 C-306.82733888 370.48902135 -311.45637697 365.48210965 -315.9375 360.25 C-316.80632812 359.27417969 -317.67515625 358.29835938 -318.5703125 357.29296875 C-334.08236876 339.51975068 -346.9072691 319.46775256 -354.9375 297.25 C-355.61619141 295.43048828 -355.61619141 295.43048828 -356.30859375 293.57421875 C-364.68920962 270.0239421 -366.4447636 241.54728262 -359.9375 217.25 C-359.59056524 215.77418255 -359.24700949 214.29756801 -358.90625 212.8203125 C-349.67632155 174.05943701 -329.33962342 140.77823808 -301.9375 112.25 C-301.0815625 111.3528125 -300.225625 110.455625 -299.34375 109.53125 C-293.567929 103.60920569 -287.44484936 98.34904241 -280.9375 93.25 C-280.34646484 92.77723633 -279.75542969 92.30447266 -279.14648438 91.81738281 C-239.08258177 59.79490704 -191.48392681 38.98181196 -143.30249023 22.41259766 C-140.97500258 21.60845515 -138.65452819 20.78382891 -136.34008789 19.94287109 C-127.24834323 16.72785389 -118.41504585 14.9178315 -108.875 13.625 C-107.42308506 13.41738749 -105.97134492 13.20854913 -104.51977539 12.99853516 C-100.32823696 12.39652485 -96.13367639 11.81868535 -91.9375 11.25 C-90.81601562 11.09789062 -89.69453125 10.94578125 -88.5390625 10.7890625 C-84.76648942 10.2802931 -80.99383446 9.77241539 -77.21972656 9.27514648 C-71.98359694 8.57321611 -66.80725426 7.71180245 -61.625 6.6875 C-54.98018077 5.3802114 -48.38864794 4.54267583 -41.65625 3.875 C-38.91007779 3.56858434 -36.2854625 3.10985437 -33.57983398 2.52832031 C-22.30229516 0.12050772 -11.50436382 -0.14260931 0 0 Z " fill="#FEFEFE" transform="translate(429.9375,426.75)"/>
<path d="M0 0 C15.77225451 12.0770406 26.27314927 30.18500015 29.62451172 49.71582031 C31.98007858 67.56243032 29.42136663 84.06345658 20.38867188 99.65551758 C18.2596121 103.44969943 18.2596121 103.44969943 18.49609375 107.671875 C20.36161909 110.67715966 22.49735134 113.3074281 24.77734375 116.00390625 C25.921875 117.96875 25.921875 117.96875 25.70288086 119.87304688 C24.75091288 122.42749926 23.56454009 123.61483647 21.5703125 125.46484375 C20.88324219 126.10615234 20.19617188 126.74746094 19.48828125 127.40820312 C18.76511719 128.06755859 18.04195313 128.72691406 17.296875 129.40625 C16.59691406 130.06173828 15.89695312 130.71722656 15.17578125 131.39257812 C10.96428499 135.28762615 6.66292514 138.73960955 1.921875 141.96875 C-1.378125 137.67875 -4.678125 133.38875 -8.078125 128.96875 C-9.769375 129.608125 -11.460625 130.2475 -13.203125 130.90625 C-27.31885385 136.24268408 -46.2737722 136.47233148 -60.1796875 130.4453125 C-61.13617188 129.95804688 -62.09265625 129.47078125 -63.078125 128.96875 C-63.97273438 128.52273437 -64.86734375 128.07671875 -65.7890625 127.6171875 C-72.3569409 123.99980216 -77.75074426 119.20236884 -83.078125 113.96875 C-83.85285156 113.21851563 -84.62757813 112.46828125 -85.42578125 111.6953125 C-101.60323982 94.99062972 -105.72547409 73.63023361 -105.421875 51.08203125 C-105.12495614 43.06151065 -103.20340803 36.30780515 -100.078125 28.96875 C-99.62050781 27.88335937 -99.16289062 26.79796875 -98.69140625 25.6796875 C-91.14369276 9.3435405 -77.55424716 -3.91828087 -60.63818359 -10.22363281 C-39.32405696 -17.5072185 -18.32355014 -12.09168283 0 0 Z " fill="#FEFEFD" transform="translate(246.078125,122.03125)"/>
</svg>
