<?xml version="1.0" standalone="no"?>
<!DOCTYPE svg PUBLIC "-//W3C//DTD SVG 20010904//EN"
 "http://www.w3.org/TR/2001/REC-SVG-20010904/DTD/svg10.dtd">
<svg version="1.0" xmlns="http://www.w3.org/2000/svg"
 width="893.000000pt" height="960.000000pt" viewBox="0 0 893.000000 960.000000"
 preserveAspectRatio="xMidYMid meet">

<g transform="translate(0.000000,960.000000) scale(0.100000,-0.100000)"
fill="#000000" stroke="none">
<path d="M3682 9410 c-326 -15 -641 -50 -802 -90 -88 -23 -384 -122 -520 -175
-356 -139 -612 -319 -902 -635 -304 -331 -551 -774 -638 -1145 -67 -289 -67
-638 0 -950 58 -266 173 -534 319 -740 77 -110 230 -261 328 -325 l82 -53 -17
-30 c-30 -52 -126 -130 -262 -212 -146 -88 -251 -175 -379 -311 -295 -315
-509 -667 -635 -1046 -77 -231 -90 -311 -91 -558 0 -184 3 -231 23 -327 76
-378 272 -775 567 -1149 93 -118 336 -363 455 -458 392 -313 886 -545 1603
-752 775 -224 1200 -294 1782 -294 358 0 484 15 849 101 1235 290 1968 621
2515 1135 233 219 414 467 560 769 236 484 300 893 210 1338 -141 699 -740
1403 -1604 1888 -124 69 -395 199 -415 199 -26 0 9 168 114 546 99 356 115
428 128 562 45 452 -191 1088 -590 1592 -91 115 -316 341 -432 434 -195 156
-466 319 -693 416 -494 211 -975 295 -1555 270z m1607 -876 c105 -35 168 -73
233 -142 185 -194 182 -461 -9 -671 -53 -59 -188 -156 -248 -179 -30 -12 -285
-55 -290 -50 -4 4 -165 1003 -165 1021 0 10 33 20 123 35 150 25 250 22 356
-14z m-486 -556 c43 -266 77 -488 77 -494 0 -6 -55 -20 -127 -32 l-128 -21
-187 192 c-103 106 -188 188 -188 184 0 -5 14 -93 30 -195 20 -123 27 -188 20
-192 -16 -10 -242 -42 -248 -35 -11 11 -152 909 -144 916 8 7 199 39 234 39
18 0 66 -49 207 -211 101 -115 185 -208 188 -205 4 4 -62 440 -73 477 -4 13
15 20 113 36 65 12 125 21 133 22 13 1 29 -83 93 -481z m-991 -93 c103 -269
187 -489 185 -490 -4 -3 -93 -37 -168 -65 l-77 -29 -28 75 c-18 47 -34 74 -44
74 -42 0 -236 -34 -242 -43 -3 -6 -9 -49 -13 -97 -4 -48 -10 -92 -14 -98 -4
-7 -43 -6 -131 4 -68 8 -125 16 -127 18 -4 3 109 1078 113 1084 3 5 337 60
348 58 5 -1 94 -222 198 -491z m-819 245 c60 -203 80 -316 84 -485 4 -125 1
-175 -11 -229 -34 -143 -120 -252 -234 -297 -85 -34 -228 -34 -297 1 -151 74
-260 298 -300 619 -19 157 -29 337 -19 344 5 3 66 3 137 0 l127 -6 0 -86 c0
-47 5 -138 11 -201 25 -274 89 -430 177 -432 57 -2 90 20 119 81 26 52 28 64
27 171 -1 121 -29 283 -78 450 -14 46 -23 87 -20 90 10 10 219 79 234 77 9 -2
25 -36 43 -97z m-1208 -104 c136 -36 268 -147 330 -278 40 -83 65 -186 65
-269 0 -74 -33 -200 -70 -265 -16 -29 -26 -55 -21 -58 4 -3 21 -24 37 -47 l29
-42 -90 -84 -90 -83 -20 26 c-11 15 -29 38 -40 51 l-20 25 -62 -21 c-196 -66
-418 18 -547 207 -155 227 -131 530 58 717 61 62 139 107 213 124 58 14 172
12 228 -3z m4121 -411 c225 -61 420 -163 547 -283 185 -177 241 -396 150 -591
-39 -83 -149 -189 -243 -234 -122 -58 -186 -71 -346 -72 l-141 0 -26 -65 c-16
-41 -30 -64 -39 -62 -31 8 -374 144 -382 152 -7 7 164 472 179 488 2 2 71 -20
155 -48 186 -64 279 -75 353 -42 86 38 88 106 7 195 -31 34 -71 64 -112 84
-64 31 -246 93 -273 93 -8 0 -15 5 -15 12 0 24 84 398 89 398 3 0 47 -11 97
-25z m-1163 -541 c44 -15 137 -86 137 -105 0 -4 -34 -31 -76 -60 -71 -47 -77
-50 -94 -34 -47 43 -145 22 -176 -37 -25 -45 -25 -148 -1 -210 24 -61 76 -108
122 -108 44 0 84 35 94 80 7 38 -3 34 144 53 l47 7 0 -54 c0 -140 -90 -248
-230 -275 -123 -24 -231 24 -307 137 -123 183 -104 440 39 555 77 62 206 84
301 51z m-519 -121 c3 -16 29 -171 57 -347 36 -228 47 -321 39 -326 -6 -4 -48
-12 -93 -19 l-82 -13 -131 135 -130 135 22 -136 c12 -76 21 -138 19 -140 -6
-7 -179 -31 -184 -27 -5 5 -111 648 -107 652 1 1 33 7 71 13 39 5 80 12 92 15
18 4 43 -19 144 -137 67 -79 128 -149 134 -156 11 -12 0 74 -39 304 l-7 42 73
12 c40 6 78 13 83 15 24 9 34 3 39 -22z m-821 -101 c131 -58 226 -213 227
-367 0 -237 -216 -420 -426 -361 -360 103 -377 631 -24 747 45 15 171 4 223
-19z m-784 -134 c158 -53 251 -174 251 -325 0 -104 -27 -169 -106 -252 -84
-89 -152 -125 -277 -146 -54 -10 -100 -16 -101 -14 -4 5 -116 699 -116 720 0
12 21 19 93 31 104 17 177 13 256 -14z m2955 -427 c57 -25 111 -83 130 -139
32 -91 15 -166 -53 -233 -114 -115 -306 -84 -386 63 -107 197 99 403 309 309z
m-864 -972 c1058 -60 1955 -332 2575 -779 826 -598 1125 -1501 779 -2362 -158
-395 -424 -717 -798 -967 -613 -411 -1391 -668 -2286 -756 -221 -22 -676 -30
-900 -16 -1017 64 -1868 356 -2484 851 -134 108 -423 397 -529 530 -204 255
-326 500 -379 764 -31 154 -29 371 6 537 63 309 190 592 383 854 85 115 350
380 473 471 359 268 789 482 1345 669 170 57 170 57 715 139 l545 83 190 -4
c105 -2 269 -8 365 -14z"/>
<path d="M5120 8258 c1 -32 67 -418 73 -424 13 -13 87 29 123 69 20 21 42 54
50 73 18 42 18 135 0 177 -17 43 -76 93 -123 106 -53 15 -123 14 -123 -1z"/>
<path d="M3480 7836 c-7 -75 -11 -138 -8 -141 5 -5 106 10 113 17 3 3 -16 62
-43 132 l-49 127 -13 -135z"/>
<path d="M1625 7771 c-100 -25 -175 -135 -175 -256 0 -141 102 -271 221 -283
l50 -5 -17 30 -17 29 64 61 c35 34 76 71 91 82 l27 21 15 -22 c14 -19 16 -20
22 -4 13 33 -3 153 -26 201 -25 52 -76 107 -118 129 -36 18 -100 26 -137 17z"/>
<path d="M3220 6679 c-132 -55 -141 -261 -15 -347 43 -30 111 -29 156 1 100
66 97 244 -6 322 -38 30 -97 40 -135 24z"/>
<path d="M2494 6503 c3 -16 15 -84 26 -153 12 -68 23 -126 25 -128 7 -8 64 29
89 58 88 106 28 250 -104 250 -40 0 -41 -1 -36 -27z"/>
</g>
</svg>
