<?xml version="1.0" encoding="UTF-8"?>
<svg version="1.1" xmlns="http://www.w3.org/2000/svg" width="893" height="960">
<path d="M0 0 C1.72944855 -0.00101212 1.72944855 -0.00101212 3.49383545 -0.00204468 C20.04100411 0.01332545 36.16584762 0.37880643 52.5 3.25 C54.03624023 3.49943359 54.03624023 3.49943359 55.60351562 3.75390625 C120.71513717 14.40208179 191.60258938 45.43854163 234.859375 97.3046875 C235.99849031 98.65535279 237.1793526 99.97146123 238.390625 101.2578125 C277.99200095 143.35260842 308.37768772 205.75040924 307.64526367 264.31469727 C307.16767705 277.25288 304.75473556 289.57574819 301.5 302.0625 C301.10392694 303.61671804 300.70843283 305.17108372 300.31347656 306.72558594 C297.26897583 318.62627792 293.95673527 330.44928961 290.60748291 342.26712036 C286.96294432 355.15345555 283.92508261 368.07174621 281.5 381.25 C282.30405273 381.61649658 283.10810547 381.98299316 283.93652344 382.3605957 C316.07400977 397.05627508 346.39172056 413.63430027 374.5 435.25 C375.15709961 435.75015625 375.81419922 436.2503125 376.49121094 436.765625 C383.55070032 442.14428358 390.31067786 447.71011762 396.8046875 453.765625 C398.9271854 455.72201437 401.07601505 457.6162845 403.26171875 459.5 C407.83431789 463.48840611 412.15039328 467.70832426 416.4375 472 C417.23019287 472.79349854 418.02288574 473.58699707 418.83959961 474.40454102 C424.4699327 480.09400043 429.59523076 485.92254922 434.5 492.25 C435.95696892 493.98031646 437.41535327 495.70944187 438.875 497.4375 C474.00373714 540.50838641 492.97271754 594.36333826 487.55249023 649.98046875 C482.39855146 696.17040914 460.86878456 739.96191332 432.5 776.25 C431.695625 777.28253906 430.89125 778.31507813 430.0625 779.37890625 C423.98801742 786.84545775 417.27928818 793.67687347 410.5 800.5 C409.58621582 801.42312988 408.67243164 802.34625977 407.73095703 803.29736328 C401.62783268 809.37211623 395.2559025 814.91482604 388.5 820.25 C387.90815918 820.72679199 387.31631836 821.20358398 386.70654297 821.69482422 C318.94361811 876.19351697 229.61415032 901.15906333 108.5 926.25 C107.69900879 926.3339502 106.89801758 926.41790039 106.07275391 926.50439453 C94.36808721 927.59107593 82.62003981 927.49382027 70.875 927.5 C69.72138977 927.50067474 68.56777954 927.50134949 67.37921143 927.50204468 C47.59274549 927.48373687 28.13739855 926.63973008 8.5 924.25 C7.11540839 924.0873065 5.73080541 923.92470977 4.34619141 923.76220703 C-18.69387421 921.0085466 -41.03697055 915.97975425 -63.5 910.25 C-65.13214034 909.83634246 -66.76430186 909.42276846 -68.39648438 909.00927734 C-111.58686049 898.03455902 -154.84408481 885.71980064 -195.5 867.25 C-196.41974609 866.83685547 -197.33949219 866.42371094 -198.28710938 865.99804688 C-232.29815119 850.6358655 -262.58635185 829.92670632 -289.875 804.5625 C-290.52919922 803.95688232 -291.18339844 803.35126465 -291.85742188 802.72729492 C-296.37934594 798.47560306 -300.4695198 793.96543372 -304.5 789.25 C-305.44850848 788.17790375 -306.3989147 787.1074823 -307.3515625 786.0390625 C-349.33810975 738.39342633 -377.41791017 678.49078502 -374.5 614.25 C-373.98312961 607.48874583 -372.91316677 600.87799072 -371.5 594.25 C-371.25854248 593.11038818 -371.25854248 593.11038818 -371.01220703 591.94775391 C-362.65025009 554.05788755 -343.79331258 518.25550161 -319.5 488.25 C-318.66745467 487.20483637 -317.83538595 486.15929283 -317.00390625 485.11328125 C-314.86978136 482.46134442 -312.70152777 479.84614123 -310.5 477.25 C-309.87867188 476.51652344 -309.25734375 475.78304688 -308.6171875 475.02734375 C-297.02603318 461.77706342 -284.7464103 448.26699272 -269.5 439.25 C-268.72446777 438.79077148 -267.94893555 438.33154297 -267.14990234 437.85839844 C-265.40913421 436.82944772 -263.66832921 435.80055937 -261.92749023 434.77172852 C-261.04391846 434.24893311 -260.16034668 433.7261377 -259.25 433.1875 C-258.38125244 432.67437256 -257.51250488 432.16124512 -256.61743164 431.63256836 C-248.17948908 426.58408104 -241.84983907 421.57979329 -236.5 413.25 C-237.5415625 412.569375 -238.583125 411.88875 -239.65625 411.1875 C-277.48572693 385.85661172 -300.0008003 344.33282989 -309.11669922 300.26904297 C-312.15059781 284.61907956 -313.73749839 269.43276674 -313.75 253.5 C-313.75067474 252.72510223 -313.75134949 251.95020447 -313.75204468 251.15182495 C-313.734354 238.31814819 -313.05798147 225.86115075 -310.5 213.25 C-310.33371094 212.42612793 -310.16742188 211.60225586 -309.99609375 210.75341797 C-300.73667989 166.72833449 -276.84903289 125.40663467 -246.5390625 92.47265625 C-244.68749705 90.45437897 -242.90167 88.39650865 -241.125 86.3125 C-234.11810054 78.3046149 -226.56112671 71.04719539 -218.234375 64.42578125 C-216.43169855 62.99136585 -214.64956347 61.53069366 -212.890625 60.04296875 C-187.83442181 38.87863144 -158.08605515 27.48732395 -127.4375 16.875 C-126.34816162 16.49532074 -126.34816162 16.49532074 -125.23681641 16.10797119 C-110.68784748 11.05679534 -96.23837759 7.17982868 -80.9375 5.125 C-79.7407666 4.95959717 -78.5440332 4.79419434 -77.31103516 4.6237793 C-66.07220973 3.11329666 -54.81430167 1.99892455 -43.5 1.25 C-42.25057617 1.16314941 -41.00115234 1.07629883 -39.71386719 0.98681641 C-26.48272691 0.12315261 -13.25596853 0.00701273 0 0 Z " fill="#D4911D" transform="translate(389.5,17.75)"/>
<path d="M0 0 C1.93285654 0.01464301 3.86571813 0.02863374 5.79858398 0.04199219 C10.43083481 0.07980229 15.06239667 0.13964308 19.69421387 0.21289062 C21.73130621 0.24481043 23.76848138 0.27136371 25.80566406 0.296875 C55.56700264 0.74121225 85.77563831 4.06065124 115.0625 9.25 C116.25294922 9.45318848 117.44339844 9.65637695 118.66992188 9.86572266 C188.14207996 21.77345687 260.72684431 44.41010583 314.49194336 91.86791992 C315.62188138 92.86225836 316.7590091 93.84844831 317.90063477 94.8293457 C330.89252541 106.03543145 343.10711823 118.24389021 353.0625 132.25 C353.47902832 132.83281738 353.89555664 133.41563477 354.32470703 134.01611328 C369.82926916 155.94373912 381.36286588 179.93697442 387.0625 206.25 C387.30589111 207.28350586 387.30589111 207.28350586 387.55419922 208.33789062 C398.15977941 254.35012912 385.72084316 305.36484722 362.0625 345.25 C353.95831255 358.2081542 344.50952794 370.10650353 334.0625 381.25 C333.60278809 381.74371094 333.14307617 382.23742187 332.66943359 382.74609375 C314.17032056 402.45554397 291.01781628 416.89639872 267.50683594 429.89648438 C265.33281966 431.1003144 263.16979676 432.32164254 261.0078125 433.546875 C241.12211073 444.63437118 219.81230258 452.9069782 198.3125 460.25 C197.53210358 460.51735962 196.75170715 460.78471924 195.94766235 461.06018066 C184.75919175 464.87305348 173.47836077 468.19118586 162.0625 471.25 C161.02883301 471.53214355 159.99516602 471.81428711 158.93017578 472.10498047 C146.49731781 475.46974422 133.97982771 478.14293109 121.3125 480.4375 C120.64950897 480.55801727 119.98651794 480.67853455 119.30343628 480.80270386 C100.95732318 484.11490012 82.57230206 486.78159983 64 488.4375 C63.03237732 488.52404846 62.06475464 488.61059692 61.06781006 488.69976807 C36.74742357 490.81139332 12.45234039 490.84942954 -11.9375 490.25 C-12.73375793 490.23066406 -13.53001587 490.21132813 -14.35040283 490.19140625 C-24.24898947 489.93156531 -34.08845614 489.27630801 -43.9375 488.25 C-45.10336639 488.12912018 -45.10336639 488.12912018 -46.29278564 488.00579834 C-68.90152686 485.61706144 -91.09151728 481.90110925 -113.25 476.8125 C-114.22477295 476.58974396 -115.1995459 476.36698792 -116.20385742 476.13748169 C-135.49260534 471.68665666 -154.56045913 466.25908377 -173.0625 459.1875 C-174.26060303 458.73052734 -175.45870605 458.27355469 -176.69311523 457.80273438 C-202.99198375 447.61167305 -228.93855378 434.605679 -251.9375 418.25 C-253.080979 417.43909912 -253.080979 417.43909912 -254.24755859 416.61181641 C-263.01800547 410.35669387 -271.60635139 404.06790813 -279.41796875 396.62890625 C-281.45319959 394.70726969 -283.51920192 392.87791328 -285.640625 391.0546875 C-290.47044309 386.84872798 -294.98381323 382.35031256 -299.5 377.8125 C-300.31146484 377.00490234 -301.12292969 376.19730469 -301.95898438 375.36523438 C-306.82733888 370.48902135 -311.45637697 365.48210965 -315.9375 360.25 C-316.80632812 359.27417969 -317.67515625 358.29835938 -318.5703125 357.29296875 C-334.08236876 339.51975068 -346.9072691 319.46775256 -354.9375 297.25 C-355.61619141 295.43048828 -355.61619141 295.43048828 -356.30859375 293.57421875 C-364.68920962 270.0239421 -366.4447636 241.54728262 -359.9375 217.25 C-359.59056524 215.77418255 -359.24700949 214.29756801 -358.90625 212.8203125 C-349.67632155 174.05943701 -329.33962342 140.77823808 -301.9375 112.25 C-301.0815625 111.3528125 -300.225625 110.455625 -299.34375 109.53125 C-293.567929 103.60920569 -287.44484936 98.34904241 -280.9375 93.25 C-280.34646484 92.77723633 -279.75542969 92.30447266 -279.14648438 91.81738281 C-239.08258177 59.79490704 -191.48392681 38.98181196 -143.30249023 22.41259766 C-140.97500258 21.60845515 -138.65452819 20.78382891 -136.34008789 19.94287109 C-127.24834323 16.72785389 -118.41504585 14.9178315 -108.875 13.625 C-107.42308506 13.41738749 -105.97134492 13.20854913 -104.51977539 12.99853516 C-100.32823696 12.39652485 -96.13367639 11.81868535 -91.9375 11.25 C-90.81601562 11.09789062 -89.69453125 10.94578125 -88.5390625 10.7890625 C-84.76648942 10.2802931 -80.99383446 9.77241539 -77.21972656 9.27514648 C-71.98359694 8.57321611 -66.80725426 7.71180245 -61.625 6.6875 C-54.98018077 5.3802114 -48.38864794 4.54267583 -41.65625 3.875 C-38.91007779 3.56858434 -36.2854625 3.10985437 -33.57983398 2.52832031 C-22.30229516 0.12050772 -11.50436382 -0.14260931 0 0 Z " fill="#FEFEFE" transform="translate(429.9375,426.75)"/>
<path d="M0 0 C15.77225451 12.0770406 26.27314927 30.18500015 29.62451172 49.71582031 C31.98007858 67.56243032 29.42136663 84.06345658 20.38867188 99.65551758 C18.2596121 103.44969943 18.2596121 103.44969943 18.49609375 107.671875 C20.36161909 110.67715966 22.49735134 113.3074281 24.77734375 116.00390625 C25.921875 117.96875 25.921875 117.96875 25.70288086 119.87304688 C24.75091288 122.42749926 23.56454009 123.61483647 21.5703125 125.46484375 C20.88324219 126.10615234 20.19617188 126.74746094 19.48828125 127.40820312 C18.76511719 128.06755859 18.04195313 128.72691406 17.296875 129.40625 C16.59691406 130.06173828 15.89695312 130.71722656 15.17578125 131.39257812 C10.96428499 135.28762615 6.66292514 138.73960955 1.921875 141.96875 C-1.378125 137.67875 -4.678125 133.38875 -8.078125 128.96875 C-9.769375 129.608125 -11.460625 130.2475 -13.203125 130.90625 C-27.31885385 136.24268408 -46.2737722 136.47233148 -60.1796875 130.4453125 C-61.13617188 129.95804688 -62.09265625 129.47078125 -63.078125 128.96875 C-63.97273438 128.52273437 -64.86734375 128.07671875 -65.7890625 127.6171875 C-72.3569409 123.99980216 -77.75074426 119.20236884 -83.078125 113.96875 C-83.85285156 113.21851563 -84.62757813 112.46828125 -85.42578125 111.6953125 C-101.60323982 94.99062972 -105.72547409 73.63023361 -105.421875 51.08203125 C-105.12495614 43.06151065 -103.20340803 36.30780515 -100.078125 28.96875 C-99.62050781 27.88335937 -99.16289062 26.79796875 -98.69140625 25.6796875 C-91.14369276 9.3435405 -77.55424716 -3.91828087 -60.63818359 -10.22363281 C-39.32405696 -17.5072185 -18.32355014 -12.09168283 0 0 Z " fill="#FEFEFD" transform="translate(246.078125,122.03125)"/>
<path d="M0 0 C1.10042383 2.8635679 1.99129799 5.61670241 2.8125 8.5625 C3.06676758 9.44349365 3.32103516 10.3244873 3.58300781 11.23217773 C7.6864622 25.66349816 11.49529353 40.20038846 14 55 C14.31324219 56.81177734 14.31324219 56.81177734 14.6328125 58.66015625 C18.21168412 83.39981644 18.95005156 113.10539275 3.41796875 134.1875 C2.95003906 134.785625 2.48210937 135.38375 2 136 C1.2575 137.03125 0.515 138.0625 -0.25 139.125 C-10.15610464 149.48138212 -23.22882564 154.35546483 -37.39453125 155.203125 C-51.4314232 155.39563095 -60.32863582 151.97396744 -70.75 142.5 C-71.4925 141.675 -72.235 140.85 -73 140 C-73.46792969 139.50113281 -73.93585938 139.00226563 -74.41796875 138.48828125 C-90.86755053 120.34722577 -96.32596846 92.57891128 -100 69 C-100.20625 67.7109375 -100.4125 66.421875 -100.625 65.09375 C-102.74957117 50.15039762 -102.13089117 35.05248448 -102 20 C-90.45 20 -78.9 20 -67 20 C-66.87882812 22.61808594 -66.75765625 25.23617187 -66.6328125 27.93359375 C-66.50841255 30.53205337 -66.38198225 33.13040705 -66.25537109 35.72875977 C-66.16992675 37.50405005 -66.0865194 39.2794398 -66.00537109 41.05493164 C-65.29112372 56.63169701 -64.27370055 72.08827918 -60.6875 87.3125 C-60.4709375 88.24255859 -60.254375 89.17261719 -60.03125 90.13085938 C-57.45544399 100.78397613 -54.58515937 111.60989375 -45 118 C-39.11511261 118.77992483 -33.98033091 118.43879992 -29 115 C-22.92226933 109.09591878 -21.03408078 99.7764797 -20.83203125 91.55078125 C-20.59722759 65.84843123 -24.95933148 41.16356897 -33.35009766 16.81567383 C-34.04669056 13.79771519 -33.84038376 11.95148456 -33 9 C-28.78632261 7.54602472 -24.56883736 6.10388539 -20.34741211 4.67260742 C-18.91173449 4.18398695 -17.4771502 3.69214173 -16.04370117 3.19702148 C-13.98374502 2.48612627 -11.92014268 1.78689924 -9.85546875 1.08984375 C-8.61434326 0.66566162 -7.37321777 0.24147949 -6.09448242 -0.19555664 C-3 -1 -3 -1 0 0 Z " fill="#FEFDFC" transform="translate(385,84)"/>
<path d="M0 0 C1.66969349 5.41561453 2.7490216 10.77946452 3.625 16.375 C3.7590625 17.17421875 3.893125 17.9734375 4.03125 18.796875 C4.15757812 19.59351562 4.28390625 20.39015625 4.4140625 21.2109375 C4.5270166 21.91524902 4.6399707 22.61956055 4.75634766 23.34521484 C5.11284015 27.22948277 5.04459619 31.10229326 5 35 C3.84999512 35.176521 2.69999023 35.35304199 1.51513672 35.53491211 C-2.76763743 36.19240395 -7.05033401 36.85039984 -11.33300781 37.50854492 C-13.18357275 37.79286134 -15.03415845 38.07704263 -16.88476562 38.36108398 C-19.55083654 38.77031154 -22.21683143 39.18003134 -24.8828125 39.58984375 C-25.70492218 39.71592514 -26.52703186 39.84200653 -27.37405396 39.97190857 C-31.58769281 40.62012933 -35.79660125 41.28760964 -40 42 C-39.7834375 43.14597656 -39.566875 44.29195312 -39.34375 45.47265625 C-39.06217548 47.00254447 -38.7809437 48.53249581 -38.5 50.0625 C-38.35691406 50.81466797 -38.21382813 51.56683594 -38.06640625 52.34179688 C-37.223569 56.97740175 -36.84984738 61.2889615 -37 66 C-35.94872925 65.81824219 -35.94872925 65.81824219 -34.8762207 65.6328125 C-31.68903485 65.08425258 -28.50079657 64.54206536 -25.3125 64 C-23.65831055 63.71382812 -23.65831055 63.71382812 -21.97070312 63.421875 C-20.90400391 63.24140625 -19.83730469 63.0609375 -18.73828125 62.875 C-17.26935425 62.62363281 -17.26935425 62.62363281 -15.77075195 62.3671875 C-13.14088643 62.01867065 -10.64876878 61.93235387 -8 62 C-6.62250627 64.75498747 -6.46719841 67.38386651 -6.0625 70.4375 C-5.44843644 74.9483278 -4.75810737 79.40935777 -3.875 83.875 C-3.02806924 88.34123642 -2.8287332 92.46142992 -3 97 C-12.09053082 99.54534863 -21.54236905 101.20122619 -31 101 C-30.855625 101.60328125 -30.71125 102.2065625 -30.5625 102.828125 C-30.376875 103.62734375 -30.19125 104.4265625 -30 105.25 C-29.814375 106.03890625 -29.62875 106.8278125 -29.4375 107.640625 C-29 110 -29 110 -29 114 C-25.06217747 113.37702151 -21.12480536 112.75123808 -17.1875 112.125 C-16.08728516 111.95097656 -14.98707031 111.77695313 -13.85351562 111.59765625 C-12.21479492 111.33662109 -12.21479492 111.33662109 -10.54296875 111.0703125 C-9.44388184 110.89532227 -8.34479492 110.72033203 -7.21240234 110.54003906 C-4.22784044 110.03830241 -1.26829618 109.45995867 1.69921875 108.8671875 C6.83359036 107.90546802 11.79084212 107.79660555 17 108 C17.08040527 108.54825439 17.16081055 109.09650879 17.24365234 109.66137695 C19.22414161 123.32253015 19.22414161 123.32253015 21.66796875 136.90625 C22 139 22 139 22 143 C10.05197514 145.14746184 -1.89354605 147.19500418 -13.92041016 148.8503418 C-22.01172336 149.9729108 -30.07011045 151.28112615 -38.12451172 152.64257812 C-45.06772126 153.7874266 -51.98035495 154.51352842 -59 155 C-59.16081055 153.9797876 -59.32162109 152.9595752 -59.48730469 151.90844727 C-63.95902668 123.54063896 -63.95902668 123.54063896 -68.48925781 95.18212891 C-69.05506149 91.65694482 -69.61734434 88.13120645 -70.1796875 84.60546875 C-72.45563833 70.37409258 -74.79435009 56.158564 -77.30053711 41.96582031 C-81.16348205 19.92402704 -81.16348205 19.92402704 -81 12 C-64.05025358 8.90425616 -47.04587636 6.39182473 -29.96606445 4.1315918 C-23.02250393 3.19142787 -16.1735454 1.96805228 -9.3125 0.55078125 C-6.13687092 0.02275802 -3.2116609 -0.10281232 0 0 Z " fill="#FEFDFC" transform="translate(484,71)"/>
<path d="M0 0 C1.43362856 0.31453053 2.86701239 0.63017661 4.30029297 0.94628906 C5.09853485 1.12194397 5.89677673 1.29759888 6.71920776 1.47857666 C32.47273218 7.3662189 61.70821706 20.37061897 76.2578125 43.49609375 C83.8864938 56.21335881 86.11883134 68.68168573 83.3828125 83.296875 C79.35570075 95.62767736 70.23608594 105.87669249 58.85327148 111.82055664 C43.37320162 119.58404313 24.30886281 124.90797199 7 120 C6.80664062 120.60328125 6.61328125 121.2065625 6.4140625 121.828125 C6.15367187 122.62734375 5.89328125 123.4265625 5.625 124.25 C5.24214844 125.43335938 5.24214844 125.43335938 4.8515625 126.640625 C4.04826333 128.86627958 3.10288338 130.90931672 2 133 C-2.8737654 132.37439384 -7.21965052 130.94891603 -11.76953125 129.1640625 C-12.49113937 128.88404388 -13.2127475 128.60402527 -13.95622253 128.31552124 C-15.47096137 127.72514686 -16.98448169 127.13163744 -18.49682617 126.53515625 C-20.81806228 125.62281379 -23.14592794 124.72907666 -25.47460938 123.8359375 C-26.94835574 123.25893269 -28.42167892 122.68084559 -29.89453125 122.1015625 C-30.59238235 121.83582428 -31.29023346 121.57008606 -32.00923157 121.29629517 C-33.709198 120.61546493 -35.36086263 119.81648291 -37 119 C-38.15519209 115.53442372 -37.85327621 114.93115223 -36.56884766 111.65209961 C-36.23164703 110.7778685 -35.89444641 109.90363739 -35.54702759 109.00291443 C-35.17314911 108.0622261 -34.79927063 107.12153778 -34.4140625 106.15234375 C-34.03768646 105.18470596 -33.66131042 104.21706818 -33.27352905 103.22010803 C-32.06609394 100.12240716 -30.84560389 97.03003237 -29.625 93.9375 C-28.8090594 91.84863382 -27.99394474 89.75944482 -27.1796875 87.66992188 C-25.68802948 83.85083436 -24.19405031 80.0327089 -22.68994141 76.21850586 C-22.38714264 75.45034042 -22.08434387 74.68217499 -21.77236938 73.89073181 C-21 72 -21 72 -20 70 C-14.45186786 70.49438801 -9.64689834 72.08139387 -4.4074707 73.93457031 C4.39759634 77.01891406 12.78532679 79.77295404 22.1875 79.75 C22.89817627 79.75265869 23.60885254 79.75531738 24.34106445 79.75805664 C29.56750565 79.53445541 33.30290975 77.69709025 37 74 C37.78493604 67.72051167 36.63715584 64.18956806 32.88671875 59.1015625 C25.88441946 51.30189994 15.37072098 47.4517943 5.48828125 44.71875 C4.71484375 44.50420166 3.94140625 44.28965332 3.14453125 44.06860352 C1.60883395 43.65300704 0.06837517 43.25456402 -1.4765625 42.87475586 C-3.60546875 42.30859375 -3.60546875 42.30859375 -7 41 C-8.71614068 36.79255239 -7.32048086 32.77455038 -6.34765625 28.515625 C-6.07918129 27.29223419 -6.07918129 27.29223419 -5.80528259 26.04412842 C-5.2327026 23.44415594 -4.64778105 20.84713964 -4.0625 18.25 C-3.67170902 16.48585787 -3.28172541 14.72153669 -2.89257812 12.95703125 C-1.93773531 8.63588867 -0.97181612 4.31735559 0 0 Z " fill="#FEFDFD" transform="translate(596,201)"/>
<path d="M0 0 C8.04423786 6.59660405 12.83932143 14.36562733 14.91015625 24.56640625 C16.10871803 38.53652799 12.68162737 49.69996323 3.91015625 60.56640625 C3.39453125 61.20964844 2.87890625 61.85289062 2.34765625 62.515625 C1.22433593 63.88467163 0.07132108 65.22930735 -1.08984375 66.56640625 C1.50273294 67.43059848 3.25053332 67.74221557 5.921875 67.8828125 C6.67919922 67.92470703 7.43652344 67.96660156 8.21679688 68.00976562 C9.00248047 68.04908203 9.78816406 68.08839844 10.59765625 68.12890625 C11.79358398 68.19368164 11.79358398 68.19368164 13.01367188 68.25976562 C14.97897072 68.36567993 16.94454121 68.46653176 18.91015625 68.56640625 C20.42451708 72.87904253 21.5726191 77.1613727 22.53515625 81.62890625 C22.92574219 83.40974609 22.92574219 83.40974609 23.32421875 85.2265625 C23.82951623 88.10675816 24.03120713 90.65568272 23.91015625 93.56640625 C10.73847357 97.78134471 -2.15709637 95.89837518 -14.46484375 89.9296875 C-15.33109375 89.47980469 -16.19734375 89.02992188 -17.08984375 88.56640625 C-16.92484375 89.24703125 -16.75984375 89.92765625 -16.58984375 90.62890625 C-16.08984375 93.56640625 -16.08984375 93.56640625 -16.08984375 100.56640625 C-24.66984375 101.88640625 -33.24984375 103.20640625 -42.08984375 104.56640625 C-43.52341893 101.69925589 -43.69510254 98.88170506 -44.140625 95.70703125 C-44.34430495 94.27871351 -44.54808508 92.85041005 -44.75195312 91.42211914 C-44.85789795 90.67108917 -44.96384277 89.9200592 -45.07299805 89.14627075 C-46.56302458 78.60549283 -48.07618651 68.08455404 -50.08984375 57.62890625 C-52.75022142 43.71897063 -54.57260232 29.67193053 -56.52050781 15.6484375 C-57.35919246 9.61856545 -58.2243708 3.59248548 -59.08984375 -2.43359375 C-56.09450862 -3.13250528 -53.09803675 -3.79392052 -50.08984375 -4.43359375 C-48.836875 -4.71976562 -48.836875 -4.71976562 -47.55859375 -5.01171875 C-32.39887527 -8.06108741 -13.26968535 -9.12801764 0 0 Z " fill="#FEFDFC" transform="translate(437.08984375,268.43359375)"/>
<path d="M0 0 C3.36396474 6.40944477 6.01202876 12.95296011 8.5625 19.72265625 C8.99109818 20.84966949 9.41969635 21.97668274 9.86128235 23.1378479 C11.24476422 26.77792839 12.62253854 30.42013752 14 34.0625 C15.88773382 39.03966652 17.77778161 44.01595213 19.66796875 48.9921875 C20.12995163 50.20966171 20.59193451 51.42713593 21.06791687 52.6815033 C23.69454625 59.59566238 26.34734186 66.4983267 29.05078125 73.3828125 C29.33984344 74.12041306 29.62890564 74.85801361 29.92672729 75.6179657 C31.20904872 78.88746959 32.49832777 82.15394612 33.79882812 85.41625977 C34.23259766 86.52026123 34.66636719 87.6242627 35.11328125 88.76171875 C35.48235596 89.68944092 35.85143066 90.61716309 36.23168945 91.57299805 C37 94 37 94 37 98 C33.56561785 99.34146494 30.12701583 100.67175905 26.6875 102 C25.71103516 102.3815625 24.73457031 102.763125 23.72851562 103.15625 C22.79072266 103.5171875 21.85292969 103.878125 20.88671875 104.25 C19.59060669 104.75273437 19.59060669 104.75273437 18.26831055 105.265625 C16 106 16 106 13 106 C12.16235732 104.04350603 11.33000941 102.08474444 10.5 100.125 C10.0359375 99.03445313 9.571875 97.94390625 9.09375 96.8203125 C8 94 8 94 8 92 C7.35973877 92.09087891 6.71947754 92.18175781 6.05981445 92.27539062 C3.14453199 92.68714623 0.22853673 93.093622 -2.6875 93.5 C-3.69490234 93.64308594 -4.70230469 93.78617187 -5.74023438 93.93359375 C-6.71669922 94.06894531 -7.69316406 94.20429688 -8.69921875 94.34375 C-10.04246216 94.53227539 -10.04246216 94.53227539 -11.4128418 94.72460938 C-13.96397361 94.99616516 -16.4366743 95.04847897 -19 95 C-18.98839844 95.61746094 -18.97679687 96.23492187 -18.96484375 96.87109375 C-18.80774963 111.61549925 -18.80774963 111.61549925 -21 116 C-29.86729597 116.29232844 -38.25290556 115.41072618 -47 114 C-46.39302955 104.57698845 -45.54380482 95.21815886 -44.4765625 85.8359375 C-44.32797317 84.51057845 -44.17965454 83.18518903 -44.03158569 81.85977173 C-43.64389506 78.39502947 -43.25301512 74.93065519 -42.86126709 71.46636963 C-42.24320808 65.99548565 -41.63033596 60.5240169 -41.01683807 55.05261993 C-40.78994005 53.03125536 -40.56227197 51.00997855 -40.33453369 48.9887085 C-39.58094061 42.28668992 -38.84417164 35.58334325 -38.13964844 28.87597656 C-38.00392426 27.58752838 -37.86820007 26.2990802 -37.72836304 24.97158813 C-37.4730081 22.53466522 -37.22013006 20.09748106 -36.97012329 17.66000366 C-36.856716 16.57675812 -36.74330872 15.49351257 -36.62646484 14.37744141 C-36.48040298 12.95837997 -36.48040298 12.95837997 -36.33139038 11.51065063 C-36.0358917 9.27191958 -35.60202741 7.17365344 -35 5 C-28.8083987 3.70691373 -22.59525527 2.5213557 -16.375 1.375 C-15.67125244 1.23989014 -14.96750488 1.10478027 -14.24243164 0.96557617 C-9.42370649 0.09194698 -4.89753489 -0.12106266 0 0 Z " fill="#FEFDFC" transform="translate(316,278)"/>
<path d="M0 0 C0.50831867 2.83206118 1.00681505 5.66529734 1.5 8.5 C1.64308594 9.29148437 1.78617188 10.08296875 1.93359375 10.8984375 C2.81386457 16.0123918 3.1428131 20.81112402 3 26 C-1.05631812 26.57315882 -5.11312407 27.14271706 -9.17041016 27.70898438 C-10.54977983 27.90201192 -11.92901372 28.09601238 -13.30810547 28.29101562 C-15.29358281 28.57158777 -17.27959881 28.84833964 -19.265625 29.125 C-20.45961914 29.29257812 -21.65361328 29.46015625 -22.88378906 29.6328125 C-26 30 -26 30 -30 30 C-29.855625 30.96421875 -29.71125 31.9284375 -29.5625 32.921875 C-29.376875 34.18515625 -29.19125 35.4484375 -29 36.75 C-28.814375 38.00296875 -28.62875 39.2559375 -28.4375 40.546875 C-28 44 -28 44 -28 48 C-26.83082031 47.7834375 -25.66164063 47.566875 -24.45703125 47.34375 C-22.90889582 47.06227083 -21.36071639 46.78103356 -19.8125 46.5 C-19.04357422 46.35691406 -18.27464844 46.21382813 -17.48242188 46.06640625 C-13.60578227 45.36761285 -9.958529 44.80960983 -6 45 C-5.49168133 47.83206118 -4.99318495 50.66529734 -4.5 53.5 C-4.35691406 54.29148437 -4.21382813 55.08296875 -4.06640625 55.8984375 C-3.18613543 61.0123918 -2.8571869 65.81112402 -3 71 C-5.77029586 71.50314563 -8.5411652 72.00263838 -11.3125 72.5 C-12.09818359 72.64308594 -12.88386719 72.78617187 -13.69335938 72.93359375 C-14.45068359 73.06894531 -15.20800781 73.20429688 -15.98828125 73.34375 C-17.03302612 73.53227539 -17.03302612 73.53227539 -18.09887695 73.72460938 C-20 74 -20 74 -23 74 C-22.505 78.455 -22.505 78.455 -22 83 C-21.3201001 82.87882812 -20.6402002 82.75765625 -19.93969727 82.6328125 C-16.81530594 82.08062166 -13.68897833 81.54024377 -10.5625 81 C-9.49322266 80.80921875 -8.42394531 80.6184375 -7.32226562 80.421875 C-1.11337002 79.35857789 4.70161952 78.78806711 11 79 C13.14149249 87.35047385 14.49709003 95.39689852 15 104 C6.21163315 106.16539418 -2.53843025 107.80953024 -11.5 109.0625 C-13.76046907 109.38635316 -16.02088592 109.7105711 -18.28125 110.03515625 C-19.38597656 110.19129395 -20.49070312 110.34743164 -21.62890625 110.50830078 C-26.10969638 111.16185751 -30.57764007 111.89067737 -35.04492188 112.63061523 C-38.06170959 113.0077137 -40.96306759 113.0635992 -44 113 C-45.97292443 102.02306448 -47.91396298 91.04950184 -49.4375 80 C-50.6491317 71.22965051 -52.018661 62.4890791 -53.4375 53.75 C-53.54402893 53.09259827 -53.65055786 52.43519653 -53.76031494 51.75787354 C-54.90190809 44.71476932 -56.05366579 37.67335714 -57.2109375 30.6328125 C-57.57816737 28.38021524 -57.94535706 26.12761143 -58.3125 23.875 C-58.48386475 22.8447168 -58.65522949 21.81443359 -58.83178711 20.75292969 C-59.06393921 19.3244873 -59.06393921 19.3244873 -59.30078125 17.8671875 C-59.43653564 17.04331543 -59.57229004 16.21944336 -59.7121582 15.37060547 C-60.01322241 12.89110299 -60.0496606 10.49523715 -60 8 C-49.10864627 6.08279541 -38.21164788 4.43706315 -27.23413086 3.09057617 C-22.55308167 2.50663484 -17.93890363 1.81676247 -13.30859375 0.91015625 C-8.7743416 0.05007841 -4.60689387 -0.17384505 0 0 Z " fill="#FEFDFB" transform="translate(515,252)"/>
<path d="M0 0 C0.67635064 3.20636973 1.33932448 6.41536689 2 9.625 C2.19078125 10.52863281 2.3815625 11.43226563 2.578125 12.36328125 C3.52210398 16.98203556 4.25214768 21.25647172 4 26 C0.85550776 26.65247647 -2.29080756 27.29572575 -5.4375 27.9375 C-6.31599609 28.11990234 -7.19449219 28.30230469 -8.09960938 28.49023438 C-13.72613087 29.63214833 -19.2848499 30.44767115 -25 31 C-24.34 36.28 -23.68 41.56 -23 47 C-20.3084375 46.505 -20.3084375 46.505 -17.5625 46 C-12.27182701 45.10880716 -7.35426942 44.82152435 -2 45 C0.25824035 53.67789216 1.57483041 62.04211664 2 71 C-0.77029586 71.50314563 -3.5411652 72.00263838 -6.3125 72.5 C-7.09818359 72.64308594 -7.88386719 72.78617187 -8.69335938 72.93359375 C-9.45068359 73.06894531 -10.20800781 73.20429688 -10.98828125 73.34375 C-12.03302612 73.53227539 -12.03302612 73.53227539 -13.09887695 73.72460938 C-15 74 -15 74 -18 74 C-17.87882812 74.70495605 -17.75765625 75.40991211 -17.6328125 76.13623047 C-17.08004131 79.38110365 -16.53995544 82.62797067 -16 85.875 C-15.80921875 86.98359375 -15.6184375 88.0921875 -15.421875 89.234375 C-14.32529892 95.89215834 -13.72515935 102.25304388 -14 109 C-17.20720862 109.5073957 -20.41592163 110.004579 -23.625 110.5 C-24.52863281 110.64308594 -25.43226563 110.78617187 -26.36328125 110.93359375 C-27.24628906 111.06894531 -28.12929687 111.20429688 -29.0390625 111.34375 C-30.24876709 111.53227539 -30.24876709 111.53227539 -31.48291016 111.72460938 C-34.33741822 112.03691637 -37.13070899 112.04375031 -40 112 C-40.12528076 111.21278564 -40.25056152 110.42557129 -40.37963867 109.61450195 C-40.980379 105.8468657 -41.58319395 102.07956568 -42.1875 98.3125 C-42.29915497 97.6162854 -42.41080994 96.9200708 -42.52584839 96.20275879 C-44.13195751 86.20519028 -45.81390886 76.22379992 -47.5625 66.25 C-49.78545703 53.54267456 -51.70356483 40.80269133 -53.54052734 28.03466797 C-54.16612874 23.90277352 -54.88829757 19.78921805 -55.6262207 15.67602539 C-55.98922502 13.07714208 -56.06740741 10.61998049 -56 8 C-51.23525263 7.18175663 -46.47043852 6.36390332 -41.70556641 5.54638672 C-40.08998882 5.26914602 -38.47442844 4.99180505 -36.85888672 4.71435547 C-36.07916504 4.5804541 -35.29944336 4.44655273 -34.49609375 4.30859375 C-33.33575623 4.10928253 -33.33575623 4.10928253 -32.15197754 3.90594482 C-30.60324802 3.64060988 -29.05433792 3.37632684 -27.50524902 3.11309814 C-24.16581088 2.54562543 -20.82999 1.96885204 -17.49804688 1.35839844 C-11.55603559 0.28883641 -6.03955026 -0.20131834 0 0 Z " fill="#FEFDFB" transform="translate(258,291)"/>
<path d="M0 0 C10.35105798 5.49239811 17.15110707 14.56158251 21.125 25.4375 C22.12769457 29.45519342 22.25897825 33.24051759 22.25 37.375 C22.25386719 39.15197266 22.25386719 39.15197266 22.2578125 40.96484375 C22.1335915 44.21285743 21.73825697 47.24953717 21.125 50.4375 C19.125 48.4375 17.125 46.4375 15.125 44.4375 C13.89136719 45.58025391 13.89136719 45.58025391 12.6328125 46.74609375 C5.84274512 53.02892177 -0.97784558 59.27209785 -7.875 65.4375 C-6.885 67.108125 -6.885 67.108125 -5.875 68.8125 C-3.875 72.1875 -3.875 72.1875 -3.875 74.4375 C-13.54826064 75.05167528 -20.43036038 72.22342824 -27.96484375 66.171875 C-36.43889332 58.47764595 -40.7403597 48.70416503 -42.28515625 37.44921875 C-42.66995241 25.88860382 -39.15949938 15.40192369 -31.875 6.4375 C-23.1728441 -1.80230227 -11.43790801 -4.64291388 0 0 Z " fill="#D4911F" transform="translate(217.875,146.5625)"/>
<path d="M0 0 C3.87841348 24.11665259 7.75013028 48.23462672 11.53683472 72.36587524 C11.84468521 74.32439827 12.15386106 76.28271344 12.46438599 78.24081421 C12.89661781 80.96857152 13.3239615 83.69705074 13.75 86.42578125 C13.877733 87.2256546 14.005466 88.02552795 14.1370697 88.84963989 C14.71693051 92.59844345 15.15099279 96.20394696 15 100 C11.79279138 100.5073957 8.58407837 101.004579 5.375 101.5 C4.47136719 101.64308594 3.56773437 101.78617187 2.63671875 101.93359375 C-1.95439866 102.63734167 -6.33831815 103.18584778 -11 103 C-12.99642665 92.465761 -14.93838596 81.93934542 -16.375 71.3125 C-17.90066739 60.05683357 -19.87028513 48.88072945 -21.84326172 37.6965332 C-26.16722925 13.06416053 -26.16722925 13.06416053 -26 3 C-23.16793882 2.49168133 -20.33470266 1.99318495 -17.5 1.5 C-16.31277344 1.28537109 -16.31277344 1.28537109 -15.1015625 1.06640625 C-14.31523437 0.93105469 -13.52890625 0.79570312 -12.71875 0.65625 C-12.00654297 0.53056641 -11.29433594 0.40488281 -10.56054688 0.27539062 C-7.02612477 -0.10474173 -3.55450398 -0.03934875 0 0 Z " fill="#FEFCFB" transform="translate(370,279)"/>
<path d="M0 0 C6.50740732 3.38696115 10.64238215 8.16488162 14.1640625 14.50390625 C16.19537968 21.04926162 16.09432528 26.00456498 13.2890625 32.31640625 C9.68522445 38.8995536 4.33810226 42.74357109 -2.7109375 45.12890625 C-10.69759152 46.2943934 -17.13045237 44.78448756 -23.7109375 40.12890625 C-28.64332931 35.59841303 -32.23878603 31.10925296 -33.046875 24.296875 C-33.13270335 17.74817226 -32.95416382 12.35997361 -28.7109375 7.12890625 C-20.42486786 -0.55889121 -11.25249856 -3.6157164 0 0 Z " fill="#FEFDFB" transform="translate(572.7109375,334.87109375)"/>
<path d="M0 0 C7.17160479 0.31873799 11.57052203 1.68483796 16.875 6.8125 C18.5674784 10.10343022 18.42770797 12.33393168 18 16 C16.01289344 22.11508388 12.38309437 26.49966277 7 30 C6.34 30 5.68 30 5 30 C4.16230066 25.56331259 3.3305862 21.12552409 2.5 16.6875 C2.26152344 15.42486328 2.02304687 14.16222656 1.77734375 12.86132812 C1.55175781 11.65283203 1.32617188 10.44433594 1.09375 9.19921875 C0.88427734 8.08377686 0.67480469 6.96833496 0.45898438 5.8190918 C0 3 0 3 0 0 Z " fill="#D59425" transform="translate(408,287)"/>
<path d="M0 0 C2.21063445 2.21063445 2.83793863 3.78381301 3.9453125 6.68359375 C4.29980469 7.61107422 4.65429688 8.53855469 5.01953125 9.49414062 C5.38433594 10.46544922 5.74914062 11.43675781 6.125 12.4375 C6.68380859 13.88866211 6.68380859 13.88866211 7.25390625 15.36914062 C10 22.61661516 10 22.61661516 10 26 C5.11126518 27.56439514 2.39277414 28 -3 28 C-2.01 18.76 -1.02 9.52 0 0 Z " fill="#D59426" transform="translate(303,318)"/>
</svg>
